<svg xmlns="http://www.w3.org/2000/svg" viewBox="0 0 64 64" style="enable-background:new 0 0 64 64" xml:space="preserve"><path d="M57.736 13.9H46.098v-.657a1.99 1.99 0 0 0-1.989-1.99h-.39a11.406 11.406 0 0 0-.671-1.616l.276-.276a1.98 1.98 0 0 0 .583-1.413 1.965 1.965 0 0 0-.583-1.401L40.99 4.213a1.969 1.969 0 0 0-1.404-.587h-.005c-.532 0-1.032.207-1.408.583l-.277.277c-.519-.264-1.06-.489-1.616-.672v-.39a1.991 1.991 0 0 0-1.989-1.988h-3.31a1.99 1.99 0 0 0-1.988 1.988v.39c-.556.183-1.097.408-1.617.672l-.277-.277a1.978 1.978 0 0 0-1.408-.583h-.005a1.965 1.965 0 0 0-1.4.583l-2.334 2.334a1.968 1.968 0 0 0-.586 1.405 1.98 1.98 0 0 0 .583 1.413l.276.276c-.264.52-.489 1.06-.671 1.617h-.39c-1.097 0-1.99.892-1.99 1.989v.656H6.262C3.36 13.9 1 16.26 1 19.16v30.67a5.269 5.269 0 0 0 5.26 5.265h18.496v5.47h-6.922a1 1 0 1 0 0 2h28.349a1 1 0 1 0 0-2h-6.926v-5.47h18.48A5.27 5.27 0 0 0 63 49.83V19.16c0-2.9-2.361-5.26-5.264-5.26zm-35.432-.646a1 1 0 0 0 .969-.753 9.495 9.495 0 0 1 1.05-2.526 1 1 0 0 0-.152-1.22l-.808-.794 2.323-2.338.807.808a1 1 0 0 0 1.22.151 9.518 9.518 0 0 1 2.527-1.05 1 1 0 0 0 .753-.968l-.012-1.129 3.3-.01v1.139a1 1 0 0 0 .752.969 9.518 9.518 0 0 1 2.526 1.05 1 1 0 0 0 1.22-.152l.793-.807 2.338 2.323-.807.807a1 1 0 0 0-.152 1.22 9.492 9.492 0 0 1 1.05 2.527 1 1 0 0 0 .969.753l1.128-.011.011 3.298h-1.14a1 1 0 0 0-.968.753 9.495 9.495 0 0 1-1.05 2.526 1 1 0 0 0 .151 1.22l.808.794-2.323 2.337-.808-.807a1 1 0 0 0-1.22-.152 9.518 9.518 0 0 1-2.526 1.05 1 1 0 0 0-.753.969l.011 1.128-3.298.012v-1.14a1 1 0 0 0-.753-.969 9.52 9.52 0 0 1-2.527-1.05.996.996 0 0 0-1.22.152l-.793.807-2.337-2.323.808-.807a1 1 0 0 0 .151-1.22 9.492 9.492 0 0 1-1.05-2.527 1 1 0 0 0-.968-.753l-1.13.011-.01-3.298h1.14zM6.26 15.899h12.914v.653c0 1.097.892 1.989 1.99 1.989h.389c.182.556.407 1.097.672 1.617l-.277.276a1.98 1.98 0 0 0-.583 1.413c.001.532.21 1.031.583 1.401l2.333 2.334c.373.377.872.585 1.405.586h.004c.533 0 1.033-.206 1.409-.582l.276-.277c.52.264 1.062.489 1.617.672v.39a1.99 1.99 0 0 0 1.989 1.988h3.31c1.096 0 1.988-.892 1.988-1.988v-.39a11.472 11.472 0 0 0 1.617-.672l.276.277c.376.376.876.583 1.408.583h.005a1.965 1.965 0 0 0 1.4-.583l2.336-2.334c.376-.374.584-.873.585-1.405a1.98 1.98 0 0 0-.583-1.413l-.276-.276c.265-.52.49-1.06.672-1.617h.39a1.99 1.99 0 0 0 1.988-1.989V15.9h11.639c1.8 0 3.263 1.463 3.263 3.26v26.433H3V19.16a3.264 3.264 0 0 1 3.26-3.26zm30.996 44.666H26.756v-5.471h10.5v5.47zm20.48-7.471H6.26A3.266 3.266 0 0 1 3 49.83v-2.238h58v2.238c0 1.8-1.464 3.264-3.264 3.264z"/><path d="M31.554 49.475a1 1 0 0 0-.372 1.364l.01.017c.183.321.514.498.858.498.17 0 .342-.043.5-.134.48-.274.642-.893.368-1.373s-.886-.647-1.364-.372zM20.706 41.727a1 1 0 0 0 1.257-.649l.725-2.274h2.277l.724 2.274a1.001 1.001 0 0 0 1.907-.607l-2.817-8.836a1 1 0 0 0-1.906 0l-2.816 8.836a1 1 0 0 0 .65 1.256zm3.621-4.923h-1.002l.501-1.573.501 1.573zM32.262 41.774a1 1 0 0 0 1-1v-3.092h1.953c1.857 0 3.368-1.513 3.368-3.372s-1.51-3.372-3.368-3.372h-2.953a1 1 0 0 0-1 1v8.836a1 1 0 0 0 1 1zm4.321-7.464c0 .756-.613 1.372-1.368 1.372h-1.953v-2.744h1.953c.755 0 1.368.616 1.368 1.372zM43.048 41.774a1 1 0 0 0 1-1v-8.836a1 1 0 1 0-2 0v8.836a1 1 0 0 0 1 1zM32.635 21.467c3.623 0 6.571-2.946 6.571-6.568a6.58 6.58 0 0 0-6.571-6.571c-3.621 0-6.568 2.948-6.568 6.571a6.575 6.575 0 0 0 6.568 6.568zm0-11.14c2.52 0 4.571 2.051 4.571 4.572a4.575 4.575 0 0 1-4.571 4.568 4.573 4.573 0 0 1-4.568-4.568 4.575 4.575 0 0 1 4.568-4.571z"/></svg>