<svg xmlns="http://www.w3.org/2000/svg" xml:space="preserve" width="2048" height="2048" style="shape-rendering:geometricPrecision;text-rendering:geometricPrecision;image-rendering:optimizeQuality;fill-rule:evenodd;clip-rule:evenodd"><defs><clipPath id="id0"><path d="M1024 0c565.538 0 1024 458.462 1024 1024s-458.462 1024-1024 1024S0 1589.538 0 1024 458.462 0 1024 0z"/></clipPath><style>.fil2{fill:none}.fil5{fill:#263238}.fil11{fill:#ad4916}.fil1{fill:#b0bec5}.fil13{fill:#ddb7a5}.fil9{fill:#e3b8a4}</style></defs><g id="Layer_x0020_1"><path d="M1024 0c565.538 0 1024 458.462 1024 1024s-458.462 1024-1024 1024S0 1589.538 0 1024 458.462 0 1024 0z" style="fill:#cfd8dc"/><g style="clip-path:url(#id0)"><g id="_385684216"><path id="_3297201921" class="fil1" d="M1469.39 506.478 2605.27 1642.36l1.72 2.11 1.66 2.16 1.6 2.19 1.55 2.23 1.5 2.27 1.44 2.3 1.38 2.34 1.33 2.37 1.26 2.4 1.21 2.44 1.14 2.47 1.08 2.5 1.02 2.52.96 2.56.88 2.59.83 2.61.76 2.64.69 2.66.62 2.69.55 2.71.48 2.73.41 2.76.34 2.77.26 2.8.19 2.81.11 2.84.04 2.85L1494.4 574.796l-.04-2.85-.11-2.834-.19-2.814-.27-2.796-.33-2.777-.41-2.755-.48-2.733-.56-2.711-.62-2.688-.69-2.664-.75-2.637-.83-2.613-.89-2.585-.95-2.557-1.02-2.528-1.08-2.499-1.15-2.468-1.2-2.437-1.26-2.405-1.33-2.371-1.38-2.338-1.44-2.302-1.5-2.266-1.55-2.23-1.61-2.191-1.66-2.154z"/><path id="_329720816" class="fil1" d="M1494.4 574.796 2630.28 1710.68v6.12L1494.4 580.921z"/><path id="_329716256" class="fil1" d="M1494.4 580.921 2630.28 1716.8v74.12L1494.4 655.038z"/><path id="_329716904" class="fil1" d="M1494.4 655.038 2630.28 1790.92v10.56L1494.4 665.599z"/><path id="_329716928" class="fil1" d="M1494.4 665.599 2630.28 1801.48v748.93L1494.4 1414.52z"/><path id="_329716520" class="fil1" d="m1494.4 1414.52 1135.88 1135.89v52.55L1494.4 1467.08z"/><path id="_329716760" class="fil1" d="m1494.4 1467.08 1135.88 1135.88-.04 3.01-.11 2.99-.19 2.97-.26 2.95-.34 2.93-.41 2.91-.48 2.88-.55 2.86-.62 2.84-.69 2.81-.76 2.78-.83 2.76-.88 2.73-.96 2.7-1.02 2.66-1.08 2.64-1.14 2.61-1.21 2.57-1.26 2.54-1.33 2.5-1.38 2.46-1.44 2.43-1.5 2.4-1.55 2.35-1.6 2.31-1.66 2.27-1.72 2.24-1.76 2.18-1.82 2.15-1.86 2.1-1.92 2.06-1.96 2-1135.88-1135.88 1.96-2.01 1.92-2.05 1.86-2.1 1.82-2.15 1.76-2.19 1.71-2.23 1.66-2.27 1.61-2.31 1.55-2.36 1.5-2.39 1.44-2.43 1.38-2.46 1.33-2.51 1.26-2.53 1.2-2.58 1.15-2.6 1.08-2.64 1.02-2.67.95-2.69.89-2.73.83-2.76.75-2.78.69-2.81.62-2.84.56-2.86.48-2.89.41-2.9.33-2.93.27-2.95.19-2.97.11-2.99z"/><path id="_329716448" class="fil1" d="m1460.07 1549.67 1135.88 1135.88-2.01 1.97-2.05 1.91-2.1 1.87-2.15 1.81-2.19 1.76-2.23 1.72-2.27 1.66-2.31 1.6-2.36 1.56-2.39 1.49-2.43 1.44-2.46 1.38-2.51 1.33-2.53 1.26-2.58 1.21-2.6 1.14-2.64 1.08-2.67 1.02-2.69.96-2.73.89-2.76.82-2.78.76-2.81.69-2.84.62-2.86.55-2.89.48-2.9.41-2.93.34-2.95.26-2.97.19-2.99.12-3.01.03L1377.48 1584l3.01-.04 2.99-.11 2.97-.19 2.95-.26 2.93-.34 2.9-.41 2.89-.48 2.86-.55 2.84-.62 2.81-.69 2.78-.76 2.76-.83 2.73-.89 2.69-.95 2.67-1.02 2.64-1.08 2.6-1.14 2.58-1.21 2.53-1.26 2.51-1.33 2.46-1.38 2.43-1.44 2.39-1.5 2.36-1.55 2.31-1.6 2.27-1.66 2.23-1.72 2.19-1.76 2.15-1.82 2.1-1.86 2.05-1.92z"/><path id="_329716496" class="fil1" d="m1377.48 1584 1135.88 1135.88H1806.4L670.522 1584z"/><path id="_329716640" class="fil1" d="M670.522 1584 1806.4 2719.88l-3.01-.03-2.98-.12-2.98-.19-2.95-.26-2.93-.34-2.9-.41-2.89-.48-2.86-.55-2.84-.62-2.81-.69-2.78-.76-2.76-.82-2.72-.89-2.7-.96-2.67-1.02-2.64-1.08-2.6-1.14-2.57-1.21-2.54-1.26-2.5-1.33-2.47-1.38-2.43-1.44-2.39-1.49-2.36-1.56-2.31-1.6-2.27-1.66-2.23-1.72-2.19-1.76L596.237 1557.23l2.189 1.76 2.231 1.72 2.273 1.66 2.313 1.6 2.353 1.55 2.392 1.5 2.429 1.44 2.468 1.38 2.501 1.33 2.538 1.26 2.572 1.21 2.604 1.14 2.637 1.08 2.669 1.02 2.698.95 2.729.89 2.756.83 2.784.76 2.81.69 2.837.62 2.861.55 2.885.48 2.907.41 2.93.34 2.951.26 2.97.19 2.99.11z"/><path id="_385685416" class="fil1" d="M1377.48 463.999c32.177 0 61.414 12.46 82.593 32.531 21.181 20.07 34.33 47.775 34.33 78.266v892.283c0 32.177-13.149 61.414-34.33 82.594-21.18 21.18-50.416 34.329-82.593 34.329H670.524c-32.178 0-61.414-13.148-82.595-34.33-21.18-21.179-34.327-50.416-34.327-82.593V574.796c0-30.492 13.147-58.195 34.327-78.266C609.11 476.458 638.346 464 670.524 464h706.956z"/></g></g><path class="fil2" d="M1024 0c565.538 0 1024 458.462 1024 1024s-458.462 1024-1024 1024S0 1589.538 0 1024 458.462 0 1024 0z"/><path d="M553.6 665.599v801.48c0 32.177 13.147 61.413 34.328 82.593 21.18 21.181 50.416 34.33 82.594 34.33h706.956c32.177 0 61.413-13.149 82.594-34.33 21.18-21.18 34.328-50.416 34.328-82.593V580.921c0-32.177-13.148-61.413-34.328-82.593-21.181-21.181-50.417-34.33-82.594-34.33H670.522c-32.178 0-61.414 13.149-82.594 34.33-21.181 21.18-34.328 50.416-34.328 82.593v84.678z" style="fill:#3d515a"/><path d="M553.6 655.038v759.487c0 30.491 13.147 58.197 34.328 78.267 21.18 20.072 50.416 32.53 82.594 32.53h706.956c32.177 0 61.413-12.458 82.594-32.53 21.18-20.07 34.328-47.776 34.328-78.267V574.796c0-30.491-13.148-58.196-34.328-78.267-21.181-20.07-50.417-32.53-82.594-32.53H670.522c-32.178 0-61.414 12.46-82.594 32.53-21.181 20.07-34.328 47.776-34.328 78.267v80.242z" style="fill:#455a64"/><path class="fil5" d="M868.396 1536.49h8.754v37.824h-8.754zM886.187 1536.49h8.754v37.824h-8.754zM903.979 1536.49h8.754v37.824h-8.754zM921.77 1536.49h8.754v37.824h-8.754zM939.561 1536.49h8.754v37.824h-8.754zM957.353 1536.49h8.754v37.824h-8.754zM975.144 1536.49h8.754v37.824h-8.754zM992.935 1536.49h8.754v37.824h-8.754zM1010.73 1536.49h8.754v37.824h-8.754zM1028.52 1536.49h8.754v37.824h-8.754zM1046.31 1536.49h8.754v37.824h-8.754zM1064.1 1536.49h8.754v37.824h-8.754zM1081.89 1536.49h8.754v37.824h-8.754zM1099.68 1536.49h8.754v37.824h-8.754zM1117.47 1536.49h8.754v37.824h-8.754zM1135.27 1536.49h8.754v37.824h-8.754zM1153.06 1536.49h8.754v37.824h-8.754zM1170.85 1536.49h8.754v37.824h-8.754zM984.32 1361.23c10.16-10.16 24.196-16.446 39.697-16.446 15.502 0 29.538 6.286 39.698 16.446 10.159 10.159 16.443 24.196 16.443 39.697 0 15.5-6.284 29.538-16.443 39.697-10.16 10.158-24.197 16.444-39.698 16.444-15.5 0-29.537-6.286-39.697-16.444-10.159-10.159-16.445-24.198-16.445-39.697 0-15.5 6.286-29.538 16.445-39.697zM929.273 560.644c0-11.626 9.425-21.05 21.05-21.05h147.353c11.625 0 21.05 9.424 21.05 21.05 0 11.626-9.425 21.05-21.05 21.05H950.324c-11.626 0-21.051-9.424-21.051-21.05z"/><path style="fill:#3ea9d2" d="M1449.6 658.834V1291.2H598.4V658.834z"/><path style="fill:#2e95ba" d="M1449.6 657.922v24.501H621.15V1291.2H598.4V657.922z"/><path d="M987.878 1046.21c-79.857 35.01-103.81 53.674-113.278 62.053-14.592 12.913-22.663 61.045-31.272 101.913h361.345c-8.607-40.868-16.678-89.002-31.27-101.913-9.47-8.379-32.548-26.564-112.403-61.573l-73.12-.48z" style="fill:#bb6847"/><path class="fil9" d="M1062.77 976.426v88.518c-10.846 13.627-25.035 21.928-38.77 22.574-14.644.69-28.81-7.19-38.778-22.574v-88.518c0-47.797 77.548-47.797 77.548 0z"/><path d="M1062.77 976.426v59.264c-14.67 10.694-28.815 16.687-38.77 16.687-9.959 0-24.107-5.993-38.778-16.686v-59.265c0-47.797 77.548-47.797 77.548 0z" style="fill:#d9ae9a"/><path class="fil11" d="m985.177 1047.4-31.309 13.54 39.88 55.28 30.252-28.7z"/><path class="fil11" d="m1062.77 1047.46 31.36 13.48-39.88 55.28-30.25-28.7zM865.435 1122.34c-9.189 20.701-15.49 56.412-22.107 87.832h73.344c-1.64-51.26-1.732-78.526-51.237-87.832zM1182.56 1122.34c9.189 20.701 15.49 56.412 22.108 87.832h-73.347c1.64-51.26 1.734-78.526 51.239-87.832z"/><path class="fil9" d="M1197.84 1177.09c1.069 5.224 5.76 28.003 6.83 33.084h-73.346c.175-5.434.334-10.595.531-15.496l65.985-17.588zM851.122 1172.57c-1.067 5.223-6.723 32.525-7.794 37.606h73.344c-.174-5.434-.33-10.594-.528-15.496l-65.022-22.11z"/><path class="fil2" d="M962.555 1099.03c-.133-.013-.268-.03-.403-.045"/><path d="M1024 769.026c31.04 0 59.145 12.584 79.49 32.926 20.341 20.344 32.925 48.447 32.925 79.489 0 32.704-14.386 77.448-37.124 111.143-19.676 29.152-45.874 50.535-75.291 50.535-29.418 0-55.616-21.383-75.29-50.535-22.74-33.694-37.126-78.44-37.126-111.143 0-31.042 12.583-59.145 32.927-79.49 20.343-20.342 48.447-32.925 79.489-32.925z" style="fill:#edc5b2"/><path class="fil5" d="M939.389 875.469c20.331-1.83 27.113-1.113 51.007-27.797 28.416 21.29 74.654 27.798 111.495 17.425 3.608-1.015 12.116 14.83 15.252 43.613 25.312-3.653 18.41-42.503 17.28-50.523-4.879-20.605-16.454-41.755-30.934-56.236-16.616-16.613-38.407-28.052-62.747-31.688a113.236 113.236 0 0 0-16.742-1.238c-31.042 0-59.146 12.584-79.49 32.926-18.713 18.713-30.86 43.991-32.687 72.083l-.925 43.857c6.219-8.49 7.939-37.399 22.353 4.273 5.148-10.37-.852-44.072 6.138-46.695z"/><path class="fil13" d="M912.024 887.077c6.14 0 20.38 15.522 20.38 34.342s-4.977 34.078-11.117 34.078c-6.139 0-11.116-15.257-11.116-34.078 0-18.82-4.286-34.342 1.853-34.342zM1135.98 887.077c-6.14 0-20.38 15.522-20.38 34.342s4.977 34.078 11.117 34.078c6.138 0 11.115-15.257 11.115-34.078 0-18.82 4.287-34.342-1.852-34.342z"/></g></svg>