<svg xmlns="http://www.w3.org/2000/svg" xml:space="preserve" width="655.359" height="655.359" style="shape-rendering:geometricPrecision;text-rendering:geometricPrecision;image-rendering:optimizeQuality;fill-rule:evenodd;clip-rule:evenodd" viewBox="0 0 6.827 6.827"><defs><style>.fil1{fill:#fffffe;fill-rule:nonzero}</style></defs><g id="Layer_x0020_1"><path style="fill:#42a5f5" d="M0 0h6.827v6.827H0z"/><path class="fil1" d="M3.029 2.866h2.865c.06 0 .107.048.107.107V5.08a.107.107 0 0 1-.107.107H1.97a.107.107 0 0 1-.107-.107v-1.13a2.167 2.167 0 0 0 .213.005v1.019h3.712V3.08H2.916a.988.988 0 0 0 .113-.214z"/><path class="fil1" d="M5.947 3.065a.107.107 0 0 0-.105-.185l-1.91 1.092-.853-.487a.914.914 0 0 1-.14.165l.936.535c.032.02.074.023.11.003l-.053-.093.053.093 1.962-1.123z"/><path class="fil1" d="M5.832 5.168a.107.107 0 0 0 .125-.173l-1.6-1.146a.107.107 0 0 0-.125.173l1.6 1.146zM3.661 4a.107.107 0 0 0-.124-.173l-1.63 1.167a.107.107 0 0 0 .125.173L3.66 4zM2.799 3.332h.245a.833.833 0 0 1-.353.366 1.348 1.348 0 0 1-.665.152c-.253 0-.472-.043-.656-.128a.865.865 0 0 1-.41-.379A1.133 1.133 0 0 1 .826 2.8c0-.215.05-.416.152-.602s.242-.325.42-.418c.176-.094.379-.14.606-.14.193 0 .365.037.515.112.15.075.265.182.345.32a.896.896 0 0 1-.062.984c-.15.2-.344.3-.58.3a.252.252 0 0 1-.144-.034.161.161 0 0 1-.065-.098.436.436 0 0 1-.313.131.42.42 0 0 1-.316-.131.486.486 0 0 1-.126-.35c0-.18.05-.345.152-.494.122-.18.28-.271.471-.271.137 0 .237.052.303.156l.028-.128h.304l-.174.825a.692.692 0 0 0-.016.101c0 .02.004.034.013.044.01.009.02.014.032.014.037 0 .084-.022.143-.067a.635.635 0 0 0 .19-.234.683.683 0 0 0 .072-.305.619.619 0 0 0-.205-.473c-.137-.127-.327-.19-.571-.19-.208 0-.384.042-.529.127a.806.806 0 0 0-.326.357 1.1 1.1 0 0 0-.11.48c0 .162.04.309.122.442.082.132.196.229.344.29.148.061.316.092.506.092.184 0 .342-.026.473-.077a.734.734 0 0 0 .319-.23zM1.556 2.86c0 .097.02.17.059.215.04.046.088.07.146.07.044 0 .085-.012.124-.033a.31.31 0 0 0 .086-.073.6.6 0 0 0 .105-.204.81.81 0 0 0 .044-.251.296.296 0 0 0-.06-.2.193.193 0 0 0-.152-.069.267.267 0 0 0-.183.076.472.472 0 0 0-.127.218.886.886 0 0 0-.042.25z"/><path style="fill:none" d="M0 0h6.827v6.827H0z"/></g></svg>