<svg xmlns="http://www.w3.org/2000/svg" viewBox="0 0 512.001 512.001" style="enable-background:new 0 0 512.001 512.001" xml:space="preserve"><path style="fill:#f2c07e" d="M52.031 46.457h406.24v268.592H52.031z"/><path style="fill:#fff" d="M80.01 74.437h350.281V287.07H80.01z"/><path style="fill:#f23488" d="M117.771 109.019h55.497v55.497h-55.497z"/><path style="fill:#23ce9e" d="M333.571 195.733h59.339v59.339h-59.339z"/><path style="fill:#cc9b61" d="M18.472 46.457h33.561v268.592H18.472z"/><path style="fill:#f2c07e" d="M87.286 315.049h406.24v44.192H87.286z"/><path style="fill:#cc9b61" d="M18.472 315.049h68.807v44.192H18.472z"/><path style="fill:#f2c07e" d="M120.896 503.606H75.571l47.004-144.367h45.324z"/><path style="fill:#cc9b61" d="M75.571 503.606H47.035l47.003-144.367h28.537z"/><path style="fill:#f2c07e" d="M393.886 359.239h-45.324l47.003 144.367h45.325z"/><path style="fill:#cc9b61" d="M348.562 359.239h-28.537l47.003 144.367h28.537z"/><path style="fill:#f2c07e" d="M214.871 8.394h80.576v38.063h-80.576z"/><path style="fill:#cc9b61" d="M185.079 8.394h29.787v38.063h-29.787z"/><path d="M148.839 295.462h281.457a8.393 8.393 0 0 0 8.394-8.394V74.437a8.393 8.393 0 0 0-8.394-8.394H80.012a8.394 8.394 0 0 0-8.394 8.394v212.631a8.394 8.394 0 0 0 8.394 8.394h40.847a8.394 8.394 0 1 0 0-16.788H88.406V82.83h333.495v195.843H148.839a8.395 8.395 0 0 0 0 16.789z"/><path d="M493.528 306.654h-26.859v-197.54c0-4.636-3.757-8.394-8.394-8.394s-8.394 3.758-8.394 8.394v197.539H60.427V54.851H449.88v26.284a8.393 8.393 0 0 0 8.394 8.394 8.393 8.393 0 0 0 8.394-8.394V46.457a8.393 8.393 0 0 0-8.394-8.394H303.836V8.394A8.393 8.393 0 0 0 295.442 0H185.079a8.394 8.394 0 0 0-8.394 8.394v29.669H18.472a8.394 8.394 0 0 0-8.394 8.394v32.999a8.394 8.394 0 1 0 16.788 0V54.851h16.773v251.802H26.866V107.437a8.394 8.394 0 1 0-16.788 0V359.24a8.394 8.394 0 0 0 8.394 8.394h64.006L39.054 501.009a8.388 8.388 0 0 0 1.19 7.531 8.391 8.391 0 0 0 6.792 3.462h73.862a8.392 8.392 0 0 0 7.981-5.795l45.116-138.571h61.015a8.394 8.394 0 1 0 0-16.788H95.68v-27.404h389.454v27.404H262.989c-4.637 0-8.394 3.758-8.394 8.394s3.757 8.394 8.394 8.394h50.941l45.117 138.57a8.396 8.396 0 0 0 7.982 5.795h73.862a8.394 8.394 0 0 0 7.982-10.993l-43.424-133.375h88.081a8.393 8.393 0 0 0 8.394-8.394v-44.192a8.396 8.396 0 0 0-8.396-8.393zM287.048 38.063h-63.79V16.788h63.79v21.275zm-93.575-21.275h12.999v21.276h-12.999V16.788zm-82.458 350.845-6.258 19.224a8.394 8.394 0 0 0 5.383 10.58c4.41 1.439 9.146-.975 10.58-5.383l7.951-24.421h27.669l-41.537 127.58h-27.67l23.034-70.746a8.394 8.394 0 0 0-5.383-10.58 8.392 8.392 0 0 0-10.58 5.383l-24.726 75.942H58.596l41.537-127.58h10.882zm-32.123-16.788H26.866v-27.404h52.026v27.404zm252.693 16.788h10.882l41.537 127.58h-10.882l-41.537-127.58zm97.745 127.579h-27.67l-41.537-127.58h27.669l41.538 127.58z"/><path d="M181.293 164.512v-53.718a8.394 8.394 0 0 0-8.394-8.394H119.18a8.394 8.394 0 0 0-8.394 8.394v53.718a8.394 8.394 0 0 0 8.394 8.394h53.718a8.396 8.396 0 0 0 8.395-8.394zm-16.788-8.394h-36.931v-36.931h36.931v36.931zM335.172 260.197h53.717a8.393 8.393 0 0 0 8.394-8.394v-53.718a8.393 8.393 0 0 0-8.394-8.394h-53.717a8.393 8.393 0 0 0-8.394 8.394v53.718a8.394 8.394 0 0 0 8.394 8.394zm8.394-41.847 25.058 25.06h-25.058v-25.06zm36.93 13.188-25.058-25.06h25.058v25.06zM192.801 121.402a8.393 8.393 0 0 0 0 11.87l79.507 79.508-4.16-1.555a8.394 8.394 0 0 0-5.876 15.725l40.359 15.081a8.397 8.397 0 0 0 8.874-1.927 8.393 8.393 0 0 0 1.927-8.873l-15.081-40.359a8.394 8.394 0 0 0-15.724 5.876l1.555 4.162-79.508-79.508a8.396 8.396 0 0 0-11.873 0zM376.02 114.151H275.299a8.393 8.393 0 0 0-8.394 8.394 8.393 8.393 0 0 0 8.394 8.394H376.02a8.394 8.394 0 0 0 0-16.788zM219.902 219.168h-68.825a8.394 8.394 0 1 0 0 16.788h68.825a8.394 8.394 0 1 0 0-16.788zM127.41 225.915c-.699-3.303-3.27-5.913-6.592-6.581-3.438-.692-7.035.911-8.836 3.914-1.884 3.139-1.461 7.232.98 9.948 2.391 2.66 6.358 3.475 9.62 2.036 3.533-1.557 5.602-5.525 4.828-9.317zM142.683 197.253a8.394 8.394 0 0 0 8.394 8.394h68.825a8.394 8.394 0 1 0 0-16.788h-68.825a8.393 8.393 0 0 0-8.394 8.394zM127.41 195.608c-.699-3.302-3.27-5.915-6.592-6.581-3.443-.691-7.032.908-8.836 3.914-1.885 3.139-1.461 7.232.98 9.948 2.389 2.66 6.358 3.475 9.62 2.036 3.533-1.559 5.602-5.525 4.828-9.317zM219.902 248.446h-68.825a8.394 8.394 0 1 0 0 16.788h68.825a8.394 8.394 0 1 0 0-16.788zM126.928 253.626c-1.359-3.221-4.642-5.351-8.159-5.172-3.654.186-6.838 2.801-7.731 6.347-.798 3.168.391 6.601 2.943 8.627 2.909 2.308 7.13 2.369 10.13.2 3.099-2.239 4.307-6.471 2.817-10.002zM376.02 164.512a8.393 8.393 0 0 0 8.394-8.394 8.393 8.393 0 0 0-8.394-8.394h-47.003a8.393 8.393 0 0 0-8.394 8.394 8.393 8.393 0 0 0 8.394 8.394h47.003z"/></svg>